<?xml version="1.0" standalone="no"?>
<!DOCTYPE svg PUBLIC "-//W3C//DTD SVG 20010904//EN"
 "http://www.w3.org/TR/2001/REC-SVG-20010904/DTD/svg10.dtd">
<svg version="1.0" xmlns="http://www.w3.org/2000/svg"
 width="225.000000pt" height="225.000000pt" viewBox="0 0 225.000000 225.000000"
 preserveAspectRatio="xMidYMid meet">

<g transform="translate(0.000000,225.000000) scale(0.100000,-0.100000)"
fill="#000000" stroke="none">
<path d="M720 1746 c-159 -46 -277 -179 -298 -336 -12 -82 2 -173 38 -245 24
-50 80 -111 333 -364 251 -250 309 -303 332 -304 23 0 80 53 327 299 164 165
309 317 322 339 41 69 59 149 54 239 -9 174 -119 314 -287 367 -123 38 -257
15 -364 -61 l-57 -41 -42 35 c-23 20 -67 46 -97 57 -69 27 -197 34 -261 15z
m196 -60 c11 -11 154 -373 154 -389 0 -4 -45 27 -100 69 l-101 78 2 43 c2 23
0 45 -3 48 -3 3 -35 14 -72 24 -37 10 -70 21 -73 24 -3 4 4 31 17 61 18 44 27
56 48 59 40 6 115 -4 128 -17z m559 14 c9 0 55 -96 55 -115 0 -2 -26 -11 -57
-20 -104 -28 -105 -29 -98 -78 l7 -43 -97 -73 c-53 -40 -99 -71 -101 -68 -3 3
28 92 69 198 l74 194 39 6 c21 4 52 5 68 3 16 -2 34 -4 41 -4z m-787 -75 c-24
-63 -18 -79 34 -89 104 -21 108 -23 108 -71 l0 -44 135 -101 135 -102 0 -270
0 -271 -42 7 c-78 13 -131 53 -331 254 -236 238 -252 264 -252 407 1 50 7 103
14 120 l12 30 18 -50 c19 -54 37 -92 54 -113 6 -8 19 -46 29 -84 10 -39 30
-91 44 -115 27 -47 95 -97 147 -109 17 -3 39 -11 48 -17 23 -14 51 8 47 37 -3
18 -10 21 -48 22 -73 1 -78 2 -119 39 -38 35 -72 99 -86 164 l-7 34 74 -5
c122 -8 195 -61 207 -150 5 -36 10 -44 30 -46 35 -5 52 25 28 50 -7 7 -19 27
-26 44 -34 84 -123 135 -248 142 l-81 4 -25 47 c-35 64 -59 149 -48 170 20 36
130 121 157 121 10 0 8 -13 -8 -55z m939 13 c23 -16 54 -44 68 -62 l26 -34
-24 -64 c-41 -113 -113 -215 -189 -270 -27 -19 -30 -19 -64 -3 -74 35 -144
-31 -114 -109 11 -30 68 -60 97 -49 34 12 63 46 63 74 0 21 11 35 49 63 79 56
157 166 196 276 l13 35 13 -30 c7 -17 13 -70 13 -120 1 -144 -15 -168 -263
-416 -185 -186 -212 -209 -264 -228 -32 -11 -69 -21 -82 -21 l-25 0 0 268 1
267 139 104 140 103 0 44 c0 43 1 43 43 54 79 21 108 32 113 44 3 7 -4 34 -16
60 -11 26 -20 50 -20 53 0 10 47 -11 87 -39z m-591 -7 c21 -15 48 -38 58 -50
26 -29 37 -27 77 15 33 35 89 71 89 58 0 -10 -118 -333 -129 -352 -8 -15 -10
-15 -15 -2 -3 8 -22 58 -42 110 -74 195 -92 250 -85 250 4 0 26 -13 47 -29z
m404 -471 c11 -11 20 -24 20 -30 0 -14 -37 -50 -52 -50 -17 0 -48 31 -48 48 0
20 29 52 47 52 7 0 22 -9 33 -20z"/>
</g>
</svg>
